<svg version="1.1" xmlns="http://www.w3.org/2000/svg" xmlns:xlink="http://www.w3.org/1999/xlink" width="1033.83349609375" height="1956"><defs/><g><g><rect fill="#C0C0C0" stroke="none" x="799" y="183" width="441" height="1929" transform="matrix(1 0 0 1 -438 -166)" fill-opacity="0.2"/></g><g><rect fill="#ffffff" stroke="none" x="792" y="176" width="441" height="1929" transform="matrix(1 0 0 1 -438 -166)"/></g><g><path fill="none" stroke="#000000" paint-order="fill stroke markers" d=" M 354 10 L 795 10 L 795 1939 L 354 1939 L 354 10 Z Z" stroke-miterlimit="10" stroke-dasharray=""/></g><g><g><path fill="none" stroke="none"/><text fill="#000000" stroke="none" font-family="Arial" font-size="13px" font-style="normal" font-weight="bold" text-decoration="undefined" x="1013" y="189.5" text-anchor="middle" dominant-baseline="central" transform="matrix(1 0 0 1 -438 -166)">Grow Kasterlee Gym Application</text></g></g><g><path fill="#ffffff" stroke="none" paint-order="stroke fill markers" d=" M 237.80038085937497 91.85000000000002 C 237.80038085937497 86.96227952000004 241.75818322737496 83 246.640380859375 83 C 251.52257849137504 83 255.48038085937503 86.96227952000004 255.48038085937503 91.85000000000002 C 255.48038085937503 96.73772048000001 251.52257849137504 100.69999999999999 246.640380859375 100.69999999999999 C 241.75818322737496 100.69999999999999 237.80038085937497 96.73772048000001 237.80038085937497 91.85000000000002 Z"/></g><g><path fill="none" stroke="#000000" paint-order="fill stroke markers" d=" M 237.80038085937497 91.85000000000002 C 237.80038085937497 86.96227952000004 241.75818322737496 83 246.640380859375 83 C 251.52257849137504 83 255.48038085937503 86.96227952000004 255.48038085937503 91.85000000000002 C 255.48038085937503 96.73772048000001 251.52257849137504 100.69999999999999 246.640380859375 100.69999999999999 C 241.75818322737496 100.69999999999999 237.80038085937497 96.73772048000001 237.80038085937497 91.85000000000002 Z" stroke-miterlimit="10" stroke-dasharray=""/></g><g><path fill="none" stroke="#000000" paint-order="fill stroke markers" d=" M 246.640380859375 100.69999999999999 L 246.640380859375 118.30000000000001" stroke-miterlimit="10" stroke-dasharray=""/></g><g><path fill="none" stroke="#000000" paint-order="fill stroke markers" d=" M 237.280380859375 107.30000000000001 L 256.000380859375 107.30000000000001" stroke-miterlimit="10" stroke-dasharray=""/></g><g><path fill="none" stroke="#000000" paint-order="fill stroke markers" d=" M 246.640380859375 118.30000000000001 L 233.640380859375 136" stroke-miterlimit="10" stroke-dasharray=""/></g><g><path fill="none" stroke="#000000" paint-order="fill stroke markers" d=" M 246.640380859375 118.30000000000001 L 259.640380859375 136" stroke-miterlimit="10" stroke-dasharray=""/></g><g><g><path fill="none" stroke="none"/><text fill="#000000" stroke="none" font-family="Arial" font-size="13px" font-style="normal" font-weight="bold" text-decoration="undefined" x="685.140380859375" y="316.5" text-anchor="middle" dominant-baseline="central" transform="matrix(1 0 0 1 -438 -166)">Gym System User</text></g></g><g><path fill="#ffffff" stroke="none" paint-order="stroke fill markers" d=" M 154.74862304687497 1027.85 C 154.74862304687497 1022.9622795199998 158.70642541487496 1019 163.588623046875 1019 C 168.47082067887504 1019 172.42862304687503 1022.9622795199998 172.42862304687503 1027.85 C 172.42862304687503 1032.73772048 168.47082067887504 1036.7 163.588623046875 1036.7 C 158.70642541487496 1036.7 154.74862304687497 1032.73772048 154.74862304687497 1027.85 Z"/></g><g><path fill="none" stroke="#000000" paint-order="fill stroke markers" d=" M 154.74862304687497 1027.85 C 154.74862304687497 1022.9622795199998 158.70642541487496 1019 163.588623046875 1019 C 168.47082067887504 1019 172.42862304687503 1022.9622795199998 172.42862304687503 1027.85 C 172.42862304687503 1032.73772048 168.47082067887504 1036.7 163.588623046875 1036.7 C 158.70642541487496 1036.7 154.74862304687497 1032.73772048 154.74862304687497 1027.85 Z" stroke-miterlimit="10" stroke-dasharray=""/></g><g><path fill="none" stroke="#000000" paint-order="fill stroke markers" d=" M 163.588623046875 1036.7 L 163.588623046875 1054.3" stroke-miterlimit="10" stroke-dasharray=""/></g><g><path fill="none" stroke="#000000" paint-order="fill stroke markers" d=" M 154.228623046875 1043.3 L 172.948623046875 1043.3" stroke-miterlimit="10" stroke-dasharray=""/></g><g><path fill="none" stroke="#000000" paint-order="fill stroke markers" d=" M 163.588623046875 1054.3 L 150.588623046875 1072" stroke-miterlimit="10" stroke-dasharray=""/></g><g><path fill="none" stroke="#000000" paint-order="fill stroke markers" d=" M 163.588623046875 1054.3 L 176.588623046875 1072" stroke-miterlimit="10" stroke-dasharray=""/></g><g><g><path fill="none" stroke="none"/><text fill="#000000" stroke="none" font-family="Arial" font-size="13px" font-style="normal" font-weight="bold" text-decoration="undefined" x="602.088623046875" y="1252.5" text-anchor="middle" dominant-baseline="central" transform="matrix(1 0 0 1 -438 -166)">Time</text></g></g><g><path fill="#ffffff" stroke="none" paint-order="stroke fill markers" d=" M 143.08407226562497 643.85 C 143.08407226562497 638.96227952 147.04187463362496 635 151.924072265625 635 C 156.80626989762504 635 160.76407226562503 638.96227952 160.76407226562503 643.85 C 160.76407226562503 648.73772048 156.80626989762504 652.7 151.924072265625 652.7 C 147.04187463362496 652.7 143.08407226562497 648.73772048 143.08407226562497 643.85 Z"/></g><g><path fill="none" stroke="#000000" paint-order="fill stroke markers" d=" M 143.08407226562497 643.85 C 143.08407226562497 638.96227952 147.04187463362496 635 151.924072265625 635 C 156.80626989762504 635 160.76407226562503 638.96227952 160.76407226562503 643.85 C 160.76407226562503 648.73772048 156.80626989762504 652.7 151.924072265625 652.7 C 147.04187463362496 652.7 143.08407226562497 648.73772048 143.08407226562497 643.85 Z" stroke-miterlimit="10" stroke-dasharray=""/></g><g><path fill="none" stroke="#000000" paint-order="fill stroke markers" d=" M 151.924072265625 652.7 L 151.924072265625 670.3" stroke-miterlimit="10" stroke-dasharray=""/></g><g><path fill="none" stroke="#000000" paint-order="fill stroke markers" d=" M 142.564072265625 659.3 L 161.284072265625 659.3" stroke-miterlimit="10" stroke-dasharray=""/></g><g><path fill="none" stroke="#000000" paint-order="fill stroke markers" d=" M 151.924072265625 670.3 L 138.924072265625 688" stroke-miterlimit="10" stroke-dasharray=""/></g><g><path fill="none" stroke="#000000" paint-order="fill stroke markers" d=" M 151.924072265625 670.3 L 164.924072265625 688" stroke-miterlimit="10" stroke-dasharray=""/></g><g><g><path fill="none" stroke="none"/><text fill="#000000" stroke="none" font-family="Arial" font-size="13px" font-style="normal" font-weight="bold" text-decoration="undefined" x="590.424072265625" y="868.5" text-anchor="middle" dominant-baseline="central" transform="matrix(1 0 0 1 -438 -166)">Member</text></g></g><g><path fill="#ffffff" stroke="none" paint-order="stroke fill markers" d=" M 163.83724609374997 1235.85 C 163.83724609374997 1230.9622795199998 167.79504846174996 1227 172.67724609375 1227 C 177.55944372575004 1227 181.51724609375003 1230.9622795199998 181.51724609375003 1235.85 C 181.51724609375003 1240.73772048 177.55944372575004 1244.7 172.67724609375 1244.7 C 167.79504846174996 1244.7 163.83724609374997 1240.73772048 163.83724609374997 1235.85 Z"/></g><g><path fill="none" stroke="#000000" paint-order="fill stroke markers" d=" M 163.83724609374997 1235.85 C 163.83724609374997 1230.9622795199998 167.79504846174996 1227 172.67724609375 1227 C 177.55944372575004 1227 181.51724609375003 1230.9622795199998 181.51724609375003 1235.85 C 181.51724609375003 1240.73772048 177.55944372575004 1244.7 172.67724609375 1244.7 C 167.79504846174996 1244.7 163.83724609374997 1240.73772048 163.83724609374997 1235.85 Z" stroke-miterlimit="10" stroke-dasharray=""/></g><g><path fill="none" stroke="#000000" paint-order="fill stroke markers" d=" M 172.67724609375 1244.7 L 172.67724609375 1262.3" stroke-miterlimit="10" stroke-dasharray=""/></g><g><path fill="none" stroke="#000000" paint-order="fill stroke markers" d=" M 163.31724609375 1251.3 L 182.03724609375 1251.3" stroke-miterlimit="10" stroke-dasharray=""/></g><g><path fill="none" stroke="#000000" paint-order="fill stroke markers" d=" M 172.67724609375 1262.3 L 159.67724609375 1280" stroke-miterlimit="10" stroke-dasharray=""/></g><g><path fill="none" stroke="#000000" paint-order="fill stroke markers" d=" M 172.67724609375 1262.3 L 185.67724609375 1280" stroke-miterlimit="10" stroke-dasharray=""/></g><g><g><path fill="none" stroke="none"/><text fill="#000000" stroke="none" font-family="Arial" font-size="13px" font-style="normal" font-weight="bold" text-decoration="undefined" x="611.17724609375" y="1460.5" text-anchor="middle" dominant-baseline="central" transform="matrix(1 0 0 1 -438 -166)">Trainer</text></g></g><g><path fill="#ffffff" stroke="none" paint-order="stroke fill markers" d=" M 163.41952148437497 1627.85 C 163.41952148437497 1622.9622795199998 167.37732385237496 1619 172.259521484375 1619 C 177.14171911637504 1619 181.09952148437503 1622.9622795199998 181.09952148437503 1627.85 C 181.09952148437503 1632.73772048 177.14171911637504 1636.7 172.259521484375 1636.7 C 167.37732385237496 1636.7 163.41952148437497 1632.73772048 163.41952148437497 1627.85 Z"/></g><g><path fill="none" stroke="#000000" paint-order="fill stroke markers" d=" M 163.41952148437497 1627.85 C 163.41952148437497 1622.9622795199998 167.37732385237496 1619 172.259521484375 1619 C 177.14171911637504 1619 181.09952148437503 1622.9622795199998 181.09952148437503 1627.85 C 181.09952148437503 1632.73772048 177.14171911637504 1636.7 172.259521484375 1636.7 C 167.37732385237496 1636.7 163.41952148437497 1632.73772048 163.41952148437497 1627.85 Z" stroke-miterlimit="10" stroke-dasharray=""/></g><g><path fill="none" stroke="#000000" paint-order="fill stroke markers" d=" M 172.259521484375 1636.7 L 172.259521484375 1654.3" stroke-miterlimit="10" stroke-dasharray=""/></g><g><path fill="none" stroke="#000000" paint-order="fill stroke markers" d=" M 162.899521484375 1643.3 L 181.619521484375 1643.3" stroke-miterlimit="10" stroke-dasharray=""/></g><g><path fill="none" stroke="#000000" paint-order="fill stroke markers" d=" M 172.259521484375 1654.3 L 159.259521484375 1672" stroke-miterlimit="10" stroke-dasharray=""/></g><g><path fill="none" stroke="#000000" paint-order="fill stroke markers" d=" M 172.259521484375 1654.3 L 185.259521484375 1672" stroke-miterlimit="10" stroke-dasharray=""/></g><g><g><path fill="none" stroke="none"/><text fill="#000000" stroke="none" font-family="Arial" font-size="13px" font-style="normal" font-weight="bold" text-decoration="undefined" x="610.759521484375" y="1852.5" text-anchor="middle" dominant-baseline="central" transform="matrix(1 0 0 1 -438 -166)">Assistant</text></g></g><g><path fill="#ffffff" stroke="none" paint-order="stroke fill markers" d=" M 162.74862304687497 1875.85 C 162.74862304687497 1870.96227952 166.70642541487496 1867 171.588623046875 1867 C 176.47082067887504 1867 180.42862304687503 1870.96227952 180.42862304687503 1875.85 C 180.42862304687503 1880.7377204799998 176.47082067887504 1884.6999999999998 171.588623046875 1884.6999999999998 C 166.70642541487496 1884.6999999999998 162.74862304687497 1880.7377204799998 162.74862304687497 1875.85 Z"/></g><g><path fill="none" stroke="#000000" paint-order="fill stroke markers" d=" M 162.74862304687497 1875.85 C 162.74862304687497 1870.96227952 166.70642541487496 1867 171.588623046875 1867 C 176.47082067887504 1867 180.42862304687503 1870.96227952 180.42862304687503 1875.85 C 180.42862304687503 1880.7377204799998 176.47082067887504 1884.6999999999998 171.588623046875 1884.6999999999998 C 166.70642541487496 1884.6999999999998 162.74862304687497 1880.7377204799998 162.74862304687497 1875.85 Z" stroke-miterlimit="10" stroke-dasharray=""/></g><g><path fill="none" stroke="#000000" paint-order="fill stroke markers" d=" M 171.588623046875 1884.6999999999998 L 171.588623046875 1902.3000000000002" stroke-miterlimit="10" stroke-dasharray=""/></g><g><path fill="none" stroke="#000000" paint-order="fill stroke markers" d=" M 162.228623046875 1891.3000000000002 L 180.948623046875 1891.3000000000002" stroke-miterlimit="10" stroke-dasharray=""/></g><g><path fill="none" stroke="#000000" paint-order="fill stroke markers" d=" M 171.588623046875 1902.3000000000002 L 158.588623046875 1920" stroke-miterlimit="10" stroke-dasharray=""/></g><g><path fill="none" stroke="#000000" paint-order="fill stroke markers" d=" M 171.588623046875 1902.3000000000002 L 184.588623046875 1920" stroke-miterlimit="10" stroke-dasharray=""/></g><g><g><path fill="none" stroke="none"/><text fill="#000000" stroke="none" font-family="Arial" font-size="13px" font-style="normal" font-weight="bold" text-decoration="undefined" x="610.088623046875" y="2100.5" text-anchor="middle" dominant-baseline="central" transform="matrix(1 0 0 1 -438 -166)">Admin</text></g></g><g><path fill="#C0C0C0" stroke="none" paint-order="stroke fill markers" d=" M 377 202.5 C 377 192.835016 410.57863999999995 185 452 185 C 493.42136000000005 185 527 192.835016 527 202.5 C 527 212.164984 493.42136000000005 220 452 220 C 410.57863999999995 220 377 212.164984 377 202.5 Z" fill-opacity="0.2"/></g><g><path fill="#ffffff" stroke="none" paint-order="stroke fill markers" d=" M 370 195.5 C 370 185.835016 403.57863999999995 178 445 178 C 486.42136000000005 178 520 185.835016 520 195.5 C 520 205.164984 486.42136000000005 213 445 213 C 403.57863999999995 213 370 205.164984 370 195.5 Z"/></g><g><path fill="none" stroke="#000000" paint-order="fill stroke markers" d=" M 370 195.5 C 370 185.835016 403.57863999999995 178 445 178 C 486.42136000000005 178 520 185.835016 520 195.5 C 520 205.164984 486.42136000000005 213 445 213 C 403.57863999999995 213 370 205.164984 370 195.5 Z" stroke-miterlimit="10" stroke-dasharray=""/></g><g><g><path fill="none" stroke="none"/><text fill="#000000" stroke="none" font-family="Arial" font-size="13px" font-style="normal" font-weight="bold" text-decoration="undefined" x="883" y="362.5" text-anchor="middle" dominant-baseline="central" transform="matrix(1 0 0 1 -438 -166)">Register Profile</text></g></g><g><path fill="#C0C0C0" stroke="none" paint-order="stroke fill markers" d=" M 521 130.5 C 521 120.835016 543.8334752 113 572 113 C 600.1665247999999 113 623 120.835016 623 130.5 C 623 140.164984 600.1665247999999 148 572 148 C 543.8334752 148 521 140.164984 521 130.5 Z" fill-opacity="0.2"/></g><g><path fill="#ffffff" stroke="none" paint-order="stroke fill markers" d=" M 514 123.5 C 514 113.835016 536.8334752 106 565 106 C 593.1665247999999 106 616 113.835016 616 123.5 C 616 133.164984 593.1665247999999 141 565 141 C 536.8334752 141 514 133.164984 514 123.5 Z"/></g><g><path fill="none" stroke="#000000" paint-order="fill stroke markers" d=" M 514 123.5 C 514 113.835016 536.8334752 106 565 106 C 593.1665247999999 106 616 113.835016 616 123.5 C 616 133.164984 593.1665247999999 141 565 141 C 536.8334752 141 514 133.164984 514 123.5 Z" stroke-miterlimit="10" stroke-dasharray=""/></g><g><g><path fill="none" stroke="none"/><text fill="#000000" stroke="none" font-family="Arial" font-size="13px" font-style="normal" font-weight="bold" text-decoration="undefined" x="1003" y="290.5" text-anchor="middle" dominant-baseline="central" transform="matrix(1 0 0 1 -438 -166)">Login</text></g></g><g><path fill="none" stroke="#000000" paint-order="fill stroke markers" d=" M 308 122 L 513 123" stroke-miterlimit="10" stroke-dasharray=""/></g><g><path fill="none" stroke="#000000" paint-order="fill stroke markers" d=" M 122 673 L 58 673 L 58 121 L 186 121" stroke-miterlimit="10" stroke-dasharray=""/></g><g><path fill="#FFFFFF" stroke="none" paint-order="stroke fill markers" d=" M 165.6746502847517 129.419035512032 L 186 121 L 165.6746502847517 112.580964487968"/></g><g><path fill="none" stroke="#000000" paint-order="fill stroke markers" d=" M 165.6746502847517 129.419035512032 L 186 121 L 165.6746502847517 112.580964487968 L 165.6746502847517 129.419035512032" stroke-miterlimit="10" stroke-dasharray=""/></g><g><path fill="#C0C0C0" stroke="none" paint-order="stroke fill markers" d=" M 425 266.5 C 425 256.835016 461.936504 249 507.5 249 C 553.063496 249 590 256.835016 590 266.5 C 590 276.164984 553.063496 284 507.5 284 C 461.936504 284 425 276.164984 425 266.5 Z" fill-opacity="0.2"/></g><g><path fill="#ffffff" stroke="none" paint-order="stroke fill markers" d=" M 418 259.5 C 418 249.835016 454.936504 242 500.5 242 C 546.063496 242 583 249.835016 583 259.5 C 583 269.164984 546.063496 277 500.5 277 C 454.936504 277 418 269.164984 418 259.5 Z"/></g><g><path fill="none" stroke="#000000" paint-order="fill stroke markers" d=" M 418 259.5 C 418 249.835016 454.936504 242 500.5 242 C 546.063496 242 583 249.835016 583 259.5 C 583 269.164984 546.063496 277 500.5 277 C 454.936504 277 418 269.164984 418 259.5 Z" stroke-miterlimit="10" stroke-dasharray=""/></g><g><g><path fill="none" stroke="none"/><text fill="#000000" stroke="none" font-family="Arial" font-size="13px" font-style="normal" font-weight="bold" text-decoration="undefined" x="938.5" y="426.5" text-anchor="middle" dominant-baseline="central" transform="matrix(1 0 0 1 -438 -166)">Purchase Credits</text></g></g><g><path fill="#C0C0C0" stroke="none" paint-order="stroke fill markers" d=" M 529 546.5 C 529 536.835016 579.5918176 529 642 529 C 704.4081824 529 755 536.835016 755 546.5 C 755 556.164984 704.4081824 564 642 564 C 579.5918176 564 529 556.164984 529 546.5 Z" fill-opacity="0.2"/></g><g><path fill="#ffffff" stroke="none" paint-order="stroke fill markers" d=" M 522 539.5 C 522 529.835016 572.5918176 522 635 522 C 697.4081824 522 748 529.835016 748 539.5 C 748 549.164984 697.4081824 557 635 557 C 572.5918176 557 522 549.164984 522 539.5 Z"/></g><g><path fill="none" stroke="#000000" paint-order="fill stroke markers" d=" M 522 539.5 C 522 529.835016 572.5918176 522 635 522 C 697.4081824 522 748 529.835016 748 539.5 C 748 549.164984 697.4081824 557 635 557 C 572.5918176 557 522 549.164984 522 539.5 Z" stroke-miterlimit="10" stroke-dasharray=""/></g><g><g><path fill="none" stroke="none"/><text fill="#000000" stroke="none" font-family="Arial" font-size="13px" font-style="normal" font-weight="bold" text-decoration="undefined" x="1073" y="706.5" text-anchor="middle" dominant-baseline="central" transform="matrix(1 0 0 1 -438 -166)">Book Session</text></g></g><g><path fill="none" stroke="#000000" paint-order="fill stroke markers" d=" M 183 636 L 484 278" stroke-miterlimit="10" stroke-dasharray=""/></g><g><path fill="none" stroke="#000000" paint-order="fill stroke markers" d=" M 183 665 L 567 558" stroke-miterlimit="10" stroke-dasharray=""/></g><g><path fill="#C0C0C0" stroke="none" paint-order="stroke fill markers" d=" M 505 1066.5 C 505 1056.835016 555.8156752 1049 618.5 1049 C 681.1843248 1049 732 1056.835016 732 1066.5 C 732 1076.164984 681.1843248 1084 618.5 1084 C 555.8156752 1084 505 1076.164984 505 1066.5 Z" fill-opacity="0.2"/></g><g><path fill="#ffffff" stroke="none" paint-order="stroke fill markers" d=" M 498 1059.5 C 498 1049.835016 548.8156752 1042 611.5 1042 C 674.1843248 1042 725 1049.835016 725 1059.5 C 725 1069.164984 674.1843248 1077 611.5 1077 C 548.8156752 1077 498 1069.164984 498 1059.5 Z"/></g><g><path fill="none" stroke="#000000" paint-order="fill stroke markers" d=" M 498 1059.5 C 498 1049.835016 548.8156752 1042 611.5 1042 C 674.1843248 1042 725 1049.835016 725 1059.5 C 725 1069.164984 674.1843248 1077 611.5 1077 C 548.8156752 1077 498 1069.164984 498 1059.5 Z" stroke-miterlimit="10" stroke-dasharray=""/></g><g><g><path fill="none" stroke="none"/><text fill="#000000" stroke="none" font-family="Arial" font-size="13px" font-style="normal" font-weight="bold" text-decoration="undefined" x="1049.5" y="1226.5" text-anchor="middle" dominant-baseline="central" transform="matrix(1 0 0 1 -438 -166)">Send Booking Reminder</text></g></g><g><path fill="none" stroke="#000000" paint-order="fill stroke markers" d=" M 190 1058 L 497 1059" stroke-miterlimit="10" stroke-dasharray=""/></g><g><path fill="#ffffff" stroke="none" paint-order="stroke fill markers" d=" M 914.1853906250001 235.85000000000002 C 914.1853906250001 230.96227952000004 918.143192993 227 923.025390625 227 C 927.907588257 227 931.8653906249999 230.96227952000004 931.8653906249999 235.85000000000002 C 931.8653906249999 240.73772048 927.907588257 244.7 923.025390625 244.7 C 918.143192993 244.7 914.1853906250001 240.73772048 914.1853906250001 235.85000000000002 Z"/></g><g><path fill="none" stroke="#000000" paint-order="fill stroke markers" d=" M 914.1853906250001 235.85000000000002 C 914.1853906250001 230.96227952000004 918.143192993 227 923.025390625 227 C 927.907588257 227 931.8653906249999 230.96227952000004 931.8653906249999 235.85000000000002 C 931.8653906249999 240.73772048 927.907588257 244.7 923.025390625 244.7 C 918.143192993 244.7 914.1853906250001 240.73772048 914.1853906250001 235.85000000000002 Z" stroke-miterlimit="10" stroke-dasharray=""/></g><g><path fill="none" stroke="#000000" paint-order="fill stroke markers" d=" M 923.025390625 244.7 L 923.025390625 262.3" stroke-miterlimit="10" stroke-dasharray=""/></g><g><path fill="none" stroke="#000000" paint-order="fill stroke markers" d=" M 913.6653906250001 251.3 L 932.3853906249999 251.3" stroke-miterlimit="10" stroke-dasharray=""/></g><g><path fill="none" stroke="#000000" paint-order="fill stroke markers" d=" M 923.025390625 262.3 L 910.025390625 280" stroke-miterlimit="10" stroke-dasharray=""/></g><g><path fill="none" stroke="#000000" paint-order="fill stroke markers" d=" M 923.025390625 262.3 L 936.025390625 280" stroke-miterlimit="10" stroke-dasharray=""/></g><g><g><path fill="none" stroke="none"/><text fill="#000000" stroke="none" font-family="Arial" font-size="13px" font-style="normal" font-weight="bold" text-decoration="undefined" x="1361.525390625" y="460.5" text-anchor="middle" dominant-baseline="central" transform="matrix(1 0 0 1 -438 -166)">Payment System</text></g></g><g><path fill="none" stroke="#000000" paint-order="fill stroke markers" d=" M 584 260 L 865 265" stroke-miterlimit="10" stroke-dasharray=""/></g><g><path fill="#ffffff" stroke="none" paint-order="stroke fill markers" d=" M 947.5767480468751 907.8499999999999 C 947.5767480468751 902.9622795199998 951.534550414875 899 956.416748046875 899 C 961.298945678875 899 965.2567480468749 902.9622795199998 965.2567480468749 907.8499999999999 C 965.2567480468749 912.73772048 961.298945678875 916.7 956.416748046875 916.7 C 951.534550414875 916.7 947.5767480468751 912.73772048 947.5767480468751 907.8499999999999 Z"/></g><g><path fill="none" stroke="#000000" paint-order="fill stroke markers" d=" M 947.5767480468751 907.8499999999999 C 947.5767480468751 902.9622795199998 951.534550414875 899 956.416748046875 899 C 961.298945678875 899 965.2567480468749 902.9622795199998 965.2567480468749 907.8499999999999 C 965.2567480468749 912.73772048 961.298945678875 916.7 956.416748046875 916.7 C 951.534550414875 916.7 947.5767480468751 912.73772048 947.5767480468751 907.8499999999999 Z" stroke-miterlimit="10" stroke-dasharray=""/></g><g><path fill="none" stroke="#000000" paint-order="fill stroke markers" d=" M 956.416748046875 916.7 L 956.416748046875 934.3" stroke-miterlimit="10" stroke-dasharray=""/></g><g><path fill="none" stroke="#000000" paint-order="fill stroke markers" d=" M 947.0567480468751 923.3 L 965.7767480468749 923.3" stroke-miterlimit="10" stroke-dasharray=""/></g><g><path fill="none" stroke="#000000" paint-order="fill stroke markers" d=" M 956.416748046875 934.3 L 943.416748046875 952" stroke-miterlimit="10" stroke-dasharray=""/></g><g><path fill="none" stroke="#000000" paint-order="fill stroke markers" d=" M 956.416748046875 934.3 L 969.416748046875 952" stroke-miterlimit="10" stroke-dasharray=""/></g><g><g><path fill="none" stroke="none"/><text fill="#000000" stroke="none" font-family="Arial" font-size="13px" font-style="normal" font-weight="bold" text-decoration="undefined" x="1394.916748046875" y="1132.5" text-anchor="middle" dominant-baseline="central" transform="matrix(1 0 0 1 -438 -166)">Mail Server</text></g></g><g><path fill="none" stroke="#000000" paint-order="fill stroke markers" d=" M 662 1041 L 889 961" stroke-miterlimit="10" stroke-dasharray=""/></g><g><path fill="none" stroke="#000000" paint-order="fill stroke markers" d=" M 146 1265 L 10 1265 L 10 121 L 186 121" stroke-miterlimit="10" stroke-dasharray=""/></g><g><path fill="#FFFFFF" stroke="none" paint-order="stroke fill markers" d=" M 165.6746502847517 129.419035512032 L 186 121 L 165.6746502847517 112.580964487968"/></g><g><path fill="none" stroke="#000000" paint-order="fill stroke markers" d=" M 165.6746502847517 129.419035512032 L 186 121 L 165.6746502847517 112.580964487968 L 165.6746502847517 129.419035512032" stroke-miterlimit="10" stroke-dasharray=""/></g><g><path fill="#C0C0C0" stroke="none" paint-order="stroke fill markers" d=" M 457 1250.5 C 457 1240.835016 512.0689696 1233 580 1233 C 647.9310304 1233 703 1240.835016 703 1250.5 C 703 1260.164984 647.9310304 1268 580 1268 C 512.0689696 1268 457 1260.164984 457 1250.5 Z" fill-opacity="0.2"/></g><g><path fill="#ffffff" stroke="none" paint-order="stroke fill markers" d=" M 450 1243.5 C 450 1233.835016 505.06896959999995 1226 573 1226 C 640.9310304 1226 696 1233.835016 696 1243.5 C 696 1253.164984 640.9310304 1261 573 1261 C 505.06896959999995 1261 450 1253.164984 450 1243.5 Z"/></g><g><path fill="none" stroke="#000000" paint-order="fill stroke markers" d=" M 450 1243.5 C 450 1233.835016 505.06896959999995 1226 573 1226 C 640.9310304 1226 696 1233.835016 696 1243.5 C 696 1253.164984 640.9310304 1261 573 1261 C 505.06896959999995 1261 450 1253.164984 450 1243.5 Z" stroke-miterlimit="10" stroke-dasharray=""/></g><g><g><path fill="none" stroke="none"/><text fill="#000000" stroke="none" font-family="Arial" font-size="13px" font-style="normal" font-weight="bold" text-decoration="undefined" x="1011" y="1410.5" text-anchor="middle" dominant-baseline="central" transform="matrix(1 0 0 1 -438 -166)">Manage Training Schedule</text></g></g><g><path fill="none" stroke="#000000" paint-order="fill stroke markers" d=" M 200 1264 L 449 1250" stroke-miterlimit="10" stroke-dasharray=""/></g><g><path fill="#C0C0C0" stroke="none" paint-order="stroke fill markers" d=" M 529 1362.5 C 529 1352.835016 576.010096 1345 634 1345 C 691.989904 1345 739 1352.835016 739 1362.5 C 739 1372.164984 691.989904 1380 634 1380 C 576.010096 1380 529 1372.164984 529 1362.5 Z" fill-opacity="0.2"/></g><g><path fill="#ffffff" stroke="none" paint-order="stroke fill markers" d=" M 522 1355.5 C 522 1345.835016 569.010096 1338 627 1338 C 684.989904 1338 732 1345.835016 732 1355.5 C 732 1365.164984 684.989904 1373 627 1373 C 569.010096 1373 522 1365.164984 522 1355.5 Z"/></g><g><path fill="none" stroke="#000000" paint-order="fill stroke markers" d=" M 522 1355.5 C 522 1345.835016 569.010096 1338 627 1338 C 684.989904 1338 732 1345.835016 732 1355.5 C 732 1365.164984 684.989904 1373 627 1373 C 569.010096 1373 522 1365.164984 522 1355.5 Z" stroke-miterlimit="10" stroke-dasharray=""/></g><g><g><path fill="none" stroke="none"/><text fill="#000000" stroke="none" font-family="Arial" font-size="13px" font-style="normal" font-weight="bold" text-decoration="undefined" x="1065" y="1522.5" text-anchor="middle" dominant-baseline="central" transform="matrix(1 0 0 1 -438 -166)">Manage Exercise Type</text></g></g><g><path fill="none" stroke="#000000" paint-order="fill stroke markers" d=" M 200 1272 L 535 1337" stroke-miterlimit="10" stroke-dasharray=""/></g><g><path fill="#C0C0C0" stroke="none" paint-order="stroke fill markers" d=" M 497 1618.5 C 497 1608.835016 535.5035072000001 1601 583 1601 C 630.4964927999999 1601 669 1608.835016 669 1618.5 C 669 1628.164984 630.4964927999999 1636 583 1636 C 535.5035072000001 1636 497 1628.164984 497 1618.5 Z" fill-opacity="0.2"/></g><g><path fill="#ffffff" stroke="none" paint-order="stroke fill markers" d=" M 490 1611.5 C 490 1601.835016 528.5035072000001 1594 576 1594 C 623.4964927999999 1594 662 1601.835016 662 1611.5 C 662 1621.164984 623.4964927999999 1629 576 1629 C 528.5035072000001 1629 490 1621.164984 490 1611.5 Z"/></g><g><path fill="none" stroke="#000000" paint-order="fill stroke markers" d=" M 490 1611.5 C 490 1601.835016 528.5035072000001 1594 576 1594 C 623.4964927999999 1594 662 1601.835016 662 1611.5 C 662 1621.164984 623.4964927999999 1629 576 1629 C 528.5035072000001 1629 490 1621.164984 490 1611.5 Z" stroke-miterlimit="10" stroke-dasharray=""/></g><g><g><path fill="none" stroke="none"/><text fill="#000000" stroke="none" font-family="Arial" font-size="13px" font-style="normal" font-weight="bold" text-decoration="undefined" x="1014" y="1778.5" text-anchor="middle" dominant-baseline="central" transform="matrix(1 0 0 1 -438 -166)">Generate Invoices</text></g></g><g><path fill="none" stroke="#000000" paint-order="fill stroke markers" d=" M 208 1654 L 489 1621" stroke-miterlimit="10" stroke-dasharray=""/></g><g><path fill="none" stroke="#000000" paint-order="fill stroke markers" d=" M 172 1617 L 172 1307" stroke-miterlimit="10" stroke-dasharray=""/></g><g><path fill="#FFFFFF" stroke="none" paint-order="stroke fill markers" d=" M 180.419035512032 1327.3253497152482 L 172 1307 L 163.580964487968 1327.3253497152482"/></g><g><path fill="none" stroke="#000000" paint-order="fill stroke markers" d=" M 180.419035512032 1327.3253497152482 L 172 1307 L 163.580964487968 1327.3253497152482 L 180.419035512032 1327.3253497152482" stroke-miterlimit="10" stroke-dasharray=""/></g><g><path fill="#C0C0C0" stroke="none" paint-order="stroke fill markers" d=" M 521 1898.5 C 521 1888.835016 551.8923488 1881 590 1881 C 628.1076512 1881 659 1888.835016 659 1898.5 C 659 1908.164984 628.1076512 1916 590 1916 C 551.8923488 1916 521 1908.164984 521 1898.5 Z" fill-opacity="0.2"/></g><g><path fill="#ffffff" stroke="none" paint-order="stroke fill markers" d=" M 514 1891.5 C 514 1881.835016 544.8923488 1874 583 1874 C 621.1076512 1874 652 1881.835016 652 1891.5 C 652 1901.164984 621.1076512 1909 583 1909 C 544.8923488 1909 514 1901.164984 514 1891.5 Z"/></g><g><path fill="none" stroke="#000000" paint-order="fill stroke markers" d=" M 514 1891.5 C 514 1881.835016 544.8923488 1874 583 1874 C 621.1076512 1874 652 1881.835016 652 1891.5 C 652 1901.164984 621.1076512 1909 583 1909 C 544.8923488 1909 514 1901.164984 514 1891.5 Z" stroke-miterlimit="10" stroke-dasharray=""/></g><g><g><path fill="none" stroke="none"/><text fill="#000000" stroke="none" font-family="Arial" font-size="13px" font-style="normal" font-weight="bold" text-decoration="undefined" x="1021" y="2058.5" text-anchor="middle" dominant-baseline="central" transform="matrix(1 0 0 1 -438 -166)">Manage User</text></g></g><g><path fill="none" stroke="#000000" paint-order="fill stroke markers" d=" M 171 1865 L 172 1699" stroke-miterlimit="10" stroke-dasharray=""/></g><g><path fill="#FFFFFF" stroke="none" paint-order="stroke fill markers" d=" M 180.2964431097729 1719.3756970856534 L 172 1699 L 163.4586776019803 1719.2742647633172"/></g><g><path fill="none" stroke="#000000" paint-order="fill stroke markers" d=" M 180.2964431097729 1719.3756970856534 L 172 1699 L 163.4586776019803 1719.2742647633172 L 180.2964431097729 1719.3756970856534" stroke-miterlimit="10" stroke-dasharray=""/></g><g><path fill="#ffffff" stroke="none" paint-order="stroke fill markers" d=" M 946.2317773437501 1027.85 C 946.2317773437501 1022.9622795199998 950.18957971175 1019 955.07177734375 1019 C 959.95397497575 1019 963.9117773437499 1022.9622795199998 963.9117773437499 1027.85 C 963.9117773437499 1032.73772048 959.95397497575 1036.7 955.07177734375 1036.7 C 950.18957971175 1036.7 946.2317773437501 1032.73772048 946.2317773437501 1027.85 Z"/></g><g><path fill="none" stroke="#000000" paint-order="fill stroke markers" d=" M 946.2317773437501 1027.85 C 946.2317773437501 1022.9622795199998 950.18957971175 1019 955.07177734375 1019 C 959.95397497575 1019 963.9117773437499 1022.9622795199998 963.9117773437499 1027.85 C 963.9117773437499 1032.73772048 959.95397497575 1036.7 955.07177734375 1036.7 C 950.18957971175 1036.7 946.2317773437501 1032.73772048 946.2317773437501 1027.85 Z" stroke-miterlimit="10" stroke-dasharray=""/></g><g><path fill="none" stroke="#000000" paint-order="fill stroke markers" d=" M 955.07177734375 1036.7 L 955.07177734375 1054.3" stroke-miterlimit="10" stroke-dasharray=""/></g><g><path fill="none" stroke="#000000" paint-order="fill stroke markers" d=" M 945.7117773437501 1043.3 L 964.4317773437499 1043.3" stroke-miterlimit="10" stroke-dasharray=""/></g><g><path fill="none" stroke="#000000" paint-order="fill stroke markers" d=" M 955.07177734375 1054.3 L 942.07177734375 1072" stroke-miterlimit="10" stroke-dasharray=""/></g><g><path fill="none" stroke="#000000" paint-order="fill stroke markers" d=" M 955.07177734375 1054.3 L 968.07177734375 1072" stroke-miterlimit="10" stroke-dasharray=""/></g><g><g><path fill="none" stroke="none"/><text fill="#000000" stroke="none" font-family="Arial" font-size="13px" font-style="normal" font-weight="bold" text-decoration="undefined" x="1393.57177734375" y="1252.5" text-anchor="middle" dominant-baseline="central" transform="matrix(1 0 0 1 -438 -166)">Member</text></g></g><g><path fill="none" stroke="#000000" paint-order="fill stroke markers" d=" M 726 1059 L 905 1058" stroke-miterlimit="10" stroke-dasharray=""/></g><g><path fill="#C0C0C0" stroke="none" paint-order="stroke fill markers" d=" M 529 474.5 C 529 464.835016 577.8009568 457 638 457 C 698.1990432 457 747 464.835016 747 474.5 C 747 484.164984 698.1990432 492 638 492 C 577.8009568 492 529 484.164984 529 474.5 Z" fill-opacity="0.2"/></g><g><path fill="#ffffff" stroke="none" paint-order="stroke fill markers" d=" M 522 467.5 C 522 457.835016 570.8009568 450 631 450 C 691.1990432 450 740 457.835016 740 467.5 C 740 477.164984 691.1990432 485 631 485 C 570.8009568 485 522 477.164984 522 467.5 Z"/></g><g><path fill="none" stroke="#000000" paint-order="fill stroke markers" d=" M 522 467.5 C 522 457.835016 570.8009568 450 631 450 C 691.1990432 450 740 457.835016 740 467.5 C 740 477.164984 691.1990432 485 631 485 C 570.8009568 485 522 477.164984 522 467.5 Z" stroke-miterlimit="10" stroke-dasharray=""/></g><g><g><path fill="none" stroke="none"/><text fill="#000000" stroke="none" font-family="Arial" font-size="13px" font-style="normal" font-weight="bold" text-decoration="undefined" x="1069" y="634.5" text-anchor="middle" dominant-baseline="central" transform="matrix(1 0 0 1 -438 -166)">View Session Schedule</text></g></g><g><path fill="none" stroke="#000000" paint-order="fill stroke markers" d=" M 183 660 L 587 486" stroke-miterlimit="10" stroke-dasharray=""/></g><g><path fill="#C0C0C0" stroke="none" paint-order="stroke fill markers" d=" M 529 402.5 C 529 392.835016 576.010096 385 634 385 C 691.989904 385 739 392.835016 739 402.5 C 739 412.164984 691.989904 420 634 420 C 576.010096 420 529 412.164984 529 402.5 Z" fill-opacity="0.2"/></g><g><path fill="#ffffff" stroke="none" paint-order="stroke fill markers" d=" M 522 395.5 C 522 385.835016 569.010096 378 627 378 C 684.989904 378 732 385.835016 732 395.5 C 732 405.164984 684.989904 413 627 413 C 569.010096 413 522 405.164984 522 395.5 Z"/></g><g><path fill="none" stroke="#000000" paint-order="fill stroke markers" d=" M 522 395.5 C 522 385.835016 569.010096 378 627 378 C 684.989904 378 732 385.835016 732 395.5 C 732 405.164984 684.989904 413 627 413 C 569.010096 413 522 405.164984 522 395.5 Z" stroke-miterlimit="10" stroke-dasharray=""/></g><g><g><path fill="none" stroke="none"/><text fill="#000000" stroke="none" font-family="Arial" font-size="13px" font-style="normal" font-weight="bold" text-decoration="undefined" x="1065" y="562.5" text-anchor="middle" dominant-baseline="central" transform="matrix(1 0 0 1 -438 -166)">View Workout Plan</text></g></g><g><path fill="none" stroke="#000000" paint-order="fill stroke markers" d=" M 183 655 L 595 414" stroke-miterlimit="10" stroke-dasharray=""/></g><g><path fill="#C0C0C0" stroke="none" paint-order="stroke fill markers" d=" M 465 330.5 C 465 320.835016 514.9202448 313 576.5 313 C 638.0797551999999 313 688 320.835016 688 330.5 C 688 340.164984 638.0797551999999 348 576.5 348 C 514.9202448 348 465 340.164984 465 330.5 Z" fill-opacity="0.2"/></g><g><path fill="#ffffff" stroke="none" paint-order="stroke fill markers" d=" M 458 323.5 C 458 313.835016 507.9202448 306 569.5 306 C 631.0797551999999 306 681 313.835016 681 323.5 C 681 333.164984 631.0797551999999 341 569.5 341 C 507.9202448 341 458 333.164984 458 323.5 Z"/></g><g><path fill="none" stroke="#000000" paint-order="fill stroke markers" d=" M 458 323.5 C 458 313.835016 507.9202448 306 569.5 306 C 631.0797551999999 306 681 313.835016 681 323.5 C 681 333.164984 631.0797551999999 341 569.5 341 C 507.9202448 341 458 333.164984 458 323.5 Z" stroke-miterlimit="10" stroke-dasharray=""/></g><g><g><path fill="none" stroke="none"/><text fill="#000000" stroke="none" font-family="Arial" font-size="13px" font-style="normal" font-weight="bold" text-decoration="undefined" x="1007.5" y="490.5" text-anchor="middle" dominant-baseline="central" transform="matrix(1 0 0 1 -438 -166)">View Remaining Credits</text></g></g><g><path fill="none" stroke="#000000" paint-order="fill stroke markers" d=" M 183 647 L 546 342" stroke-miterlimit="10" stroke-dasharray=""/></g><g><path fill="#C0C0C0" stroke="none" paint-order="stroke fill markers" d=" M 505 1418.5 C 505 1408.835016 550.890808 1401 607.5 1401 C 664.1091919999999 1401 710 1408.835016 710 1418.5 C 710 1428.164984 664.1091919999999 1436 607.5 1436 C 550.890808 1436 505 1428.164984 505 1418.5 Z" fill-opacity="0.2"/></g><g><path fill="#ffffff" stroke="none" paint-order="stroke fill markers" d=" M 498 1411.5 C 498 1401.835016 543.890808 1394 600.5 1394 C 657.1091919999999 1394 703 1401.835016 703 1411.5 C 703 1421.164984 657.1091919999999 1429 600.5 1429 C 543.890808 1429 498 1421.164984 498 1411.5 Z"/></g><g><path fill="none" stroke="#000000" paint-order="fill stroke markers" d=" M 498 1411.5 C 498 1401.835016 543.890808 1394 600.5 1394 C 657.1091919999999 1394 703 1401.835016 703 1411.5 C 703 1421.164984 657.1091919999999 1429 600.5 1429 C 543.890808 1429 498 1421.164984 498 1411.5 Z" stroke-miterlimit="10" stroke-dasharray=""/></g><g><g><path fill="none" stroke="none"/><text fill="#000000" stroke="none" font-family="Arial" font-size="13px" font-style="normal" font-weight="bold" text-decoration="undefined" x="1038.5" y="1578.5" text-anchor="middle" dominant-baseline="central" transform="matrix(1 0 0 1 -438 -166)">Manage Workout Plan</text></g></g><g><path fill="none" stroke="#000000" paint-order="fill stroke markers" d=" M 200 1276 L 547 1393" stroke-miterlimit="10" stroke-dasharray=""/></g><g><path fill="#C0C0C0" stroke="none" paint-order="stroke fill markers" d=" M 465 1826.5 C 465 1816.835016 513.129384 1809 572.5 1809 C 631.8706159999999 1809 680 1816.835016 680 1826.5 C 680 1836.164984 631.8706159999999 1844 572.5 1844 C 513.129384 1844 465 1836.164984 465 1826.5 Z" fill-opacity="0.2"/></g><g><path fill="#ffffff" stroke="none" paint-order="stroke fill markers" d=" M 458 1819.5 C 458 1809.835016 506.12938399999996 1802 565.5 1802 C 624.8706159999999 1802 673 1809.835016 673 1819.5 C 673 1829.164984 624.8706159999999 1837 565.5 1837 C 506.12938399999996 1837 458 1829.164984 458 1819.5 Z"/></g><g><path fill="none" stroke="#000000" paint-order="fill stroke markers" d=" M 458 1819.5 C 458 1809.835016 506.12938399999996 1802 565.5 1802 C 624.8706159999999 1802 673 1809.835016 673 1819.5 C 673 1829.164984 624.8706159999999 1837 565.5 1837 C 506.12938399999996 1837 458 1829.164984 458 1819.5 Z" stroke-miterlimit="10" stroke-dasharray=""/></g><g><g><path fill="none" stroke="none"/><text fill="#000000" stroke="none" font-family="Arial" font-size="13px" font-style="normal" font-weight="bold" text-decoration="undefined" x="1003.5" y="1986.5" text-anchor="middle" dominant-baseline="central" transform="matrix(1 0 0 1 -438 -166)">Manage Session Types</text></g></g><g><path fill="none" stroke="#000000" paint-order="fill stroke markers" d=" M 198 1905 L 513 1894" stroke-miterlimit="10" stroke-dasharray=""/></g><g><path fill="#C0C0C0" stroke="none" paint-order="stroke fill markers" d=" M 489 1682.5 C 489 1672.835016 541.8303936 1665 607 1665 C 672.1696064 1665 725 1672.835016 725 1682.5 C 725 1692.164984 672.1696064 1700 607 1700 C 541.8303936 1700 489 1692.164984 489 1682.5 Z" fill-opacity="0.2"/></g><g><path fill="#ffffff" stroke="none" paint-order="stroke fill markers" d=" M 482 1675.5 C 482 1665.835016 534.8303936 1658 600 1658 C 665.1696064 1658 718 1665.835016 718 1675.5 C 718 1685.164984 665.1696064 1693 600 1693 C 534.8303936 1693 482 1685.164984 482 1675.5 Z"/></g><g><path fill="none" stroke="#000000" paint-order="fill stroke markers" d=" M 482 1675.5 C 482 1665.835016 534.8303936 1658 600 1658 C 665.1696064 1658 718 1665.835016 718 1675.5 C 718 1685.164984 665.1696064 1693 600 1693 C 534.8303936 1693 482 1685.164984 482 1675.5 Z" stroke-miterlimit="10" stroke-dasharray=""/></g><g><g><path fill="none" stroke="none"/><text fill="#000000" stroke="none" font-family="Arial" font-size="13px" font-style="normal" font-weight="bold" text-decoration="undefined" x="1038" y="1842.5" text-anchor="middle" dominant-baseline="central" transform="matrix(1 0 0 1 -438 -166)">View Session Attendance</text></g></g><g><path fill="#C0C0C0" stroke="none" paint-order="stroke fill markers" d=" M 537 658.5 C 537 648.835016 588.7111055999999 641 652.5 641 C 716.2888944000001 641 768 648.835016 768 658.5 C 768 668.164984 716.2888944000001 676 652.5 676 C 588.7111055999999 676 537 668.164984 537 658.5 Z" fill-opacity="0.2"/></g><g><path fill="#ffffff" stroke="none" paint-order="stroke fill markers" d=" M 530 651.5 C 530 641.835016 581.7111056 634 645.5 634 C 709.2888944000001 634 761 641.835016 761 651.5 C 761 661.164984 709.2888944000001 669 645.5 669 C 581.7111056 669 530 661.164984 530 651.5 Z"/></g><g><path fill="none" stroke="#000000" paint-order="fill stroke markers" d=" M 530 651.5 C 530 641.835016 581.7111056 634 645.5 634 C 709.2888944000001 634 761 641.835016 761 651.5 C 761 661.164984 709.2888944000001 669 645.5 669 C 581.7111056 669 530 661.164984 530 651.5 Z" stroke-miterlimit="10" stroke-dasharray=""/></g><g><g><path fill="none" stroke="none"/><text fill="#000000" stroke="none" font-family="Arial" font-size="13px" font-style="normal" font-weight="bold" text-decoration="undefined" x="1083.5" y="818.5" text-anchor="middle" dominant-baseline="central" transform="matrix(1 0 0 1 -438 -166)">Confirm Shared Session</text></g></g><g><path fill="none" stroke="#000000" paint-order="fill stroke markers" d=" M 183 673 L 529 656" stroke-miterlimit="10" stroke-dasharray=""/></g><g><path fill="none" stroke="#000000" paint-order="fill stroke markers" d=" M 208 1659 L 481 1670" stroke-miterlimit="10" stroke-dasharray=""/></g><g><path fill="#C0C0C0" stroke="none" paint-order="stroke fill markers" d=" M 505 1314.5 C 505 1304.835016 552.9055264 1297 612 1297 C 671.0944735999999 1297 719 1304.835016 719 1314.5 C 719 1324.164984 671.0944735999999 1332 612 1332 C 552.9055264 1332 505 1324.164984 505 1314.5 Z" fill-opacity="0.2"/></g><g><path fill="#ffffff" stroke="none" paint-order="stroke fill markers" d=" M 498 1307.5 C 498 1297.835016 545.9055264 1290 605 1290 C 664.0944735999999 1290 712 1297.835016 712 1307.5 C 712 1317.164984 664.0944735999999 1325 605 1325 C 545.9055264 1325 498 1317.164984 498 1307.5 Z"/></g><g><path fill="none" stroke="#000000" paint-order="fill stroke markers" d=" M 498 1307.5 C 498 1297.835016 545.9055264 1290 605 1290 C 664.0944735999999 1290 712 1297.835016 712 1307.5 C 712 1317.164984 664.0944735999999 1325 605 1325 C 545.9055264 1325 498 1317.164984 498 1307.5 Z" stroke-miterlimit="10" stroke-dasharray=""/></g><g><g><path fill="none" stroke="none"/><text fill="#000000" stroke="none" font-family="Arial" font-size="13px" font-style="normal" font-weight="bold" text-decoration="undefined" x="1043" y="1474.5" text-anchor="middle" dominant-baseline="central" transform="matrix(1 0 0 1 -438 -166)">View Booked Sessions</text></g></g><g><path fill="none" stroke="#000000" paint-order="fill stroke markers" d=" M 200 1269 L 497 1297" stroke-miterlimit="10" stroke-dasharray=""/></g><g><path fill="#C0C0C0" stroke="none" paint-order="stroke fill markers" d=" M 521 610.5 C 521 600.835016 577.1882576 593 646.5 593 C 715.8117424 593 772 600.835016 772 610.5 C 772 620.164984 715.8117424 628 646.5 628 C 577.1882576 628 521 620.164984 521 610.5 Z" fill-opacity="0.2"/></g><g><path fill="#ffffff" stroke="none" paint-order="stroke fill markers" d=" M 514 603.5 C 514 593.835016 570.1882576 586 639.5 586 C 708.8117424 586 765 593.835016 765 603.5 C 765 613.164984 708.8117424 621 639.5 621 C 570.1882576 621 514 613.164984 514 603.5 Z"/></g><g><path fill="none" stroke="#000000" paint-order="fill stroke markers" d=" M 514 603.5 C 514 593.835016 570.1882576 586 639.5 586 C 708.8117424 586 765 593.835016 765 603.5 C 765 613.164984 708.8117424 621 639.5 621 C 570.1882576 621 514 613.164984 514 603.5 Z" stroke-miterlimit="10" stroke-dasharray=""/></g><g><g><path fill="none" stroke="none"/><text fill="#000000" stroke="none" font-family="Arial" font-size="13px" font-style="normal" font-weight="bold" text-decoration="undefined" x="1077.5" y="770.5" text-anchor="middle" dominant-baseline="central" transform="matrix(1 0 0 1 -438 -166)">Confirm Individual Session</text></g></g><g><path fill="none" stroke="#000000" paint-order="fill stroke markers" d=" M 183 669 L 513 621" stroke-miterlimit="10" stroke-dasharray=""/></g><g><path fill="#C0C0C0" stroke="none" paint-order="stroke fill markers" d=" M 553 714.5 C 553 704.835016 600.9055264000001 697 660 697 C 719.0944735999999 697 767 704.835016 767 714.5 C 767 724.164984 719.0944735999999 732 660 732 C 600.9055264000001 732 553 724.164984 553 714.5 Z" fill-opacity="0.2"/></g><g><path fill="#ffffff" stroke="none" paint-order="stroke fill markers" d=" M 546 707.5 C 546 697.835016 593.9055264000001 690 653 690 C 712.0944735999999 690 760 697.835016 760 707.5 C 760 717.164984 712.0944735999999 725 653 725 C 593.9055264000001 725 546 717.164984 546 707.5 Z"/></g><g><path fill="none" stroke="#000000" paint-order="fill stroke markers" d=" M 546 707.5 C 546 697.835016 593.9055264000001 690 653 690 C 712.0944735999999 690 760 697.835016 760 707.5 C 760 717.164984 712.0944735999999 725 653 725 C 593.9055264000001 725 546 717.164984 546 707.5 Z" stroke-miterlimit="10" stroke-dasharray=""/></g><g><g><path fill="none" stroke="none"/><text fill="#000000" stroke="none" font-family="Arial" font-size="13px" font-style="normal" font-weight="bold" text-decoration="undefined" x="1091" y="874.5" text-anchor="middle" dominant-baseline="central" transform="matrix(1 0 0 1 -438 -166)">View Booked Sessions</text></g></g><g><path fill="none" stroke="#000000" paint-order="fill stroke markers" d=" M 183 676 L 545 700" stroke-miterlimit="10" stroke-dasharray=""/></g><g><path fill="#C0C0C0" stroke="none" paint-order="stroke fill markers" d=" M 577 778.5 C 577 768.835016 608.340064 761 647 761 C 685.659936 761 717 768.835016 717 778.5 C 717 788.164984 685.659936 796 647 796 C 608.340064 796 577 788.164984 577 778.5 Z" fill-opacity="0.2"/></g><g><path fill="#ffffff" stroke="none" paint-order="stroke fill markers" d=" M 570 771.5 C 570 761.835016 601.340064 754 640 754 C 678.659936 754 710 761.835016 710 771.5 C 710 781.164984 678.659936 789 640 789 C 601.340064 789 570 781.164984 570 771.5 Z"/></g><g><path fill="none" stroke="#000000" paint-order="fill stroke markers" d=" M 570 771.5 C 570 761.835016 601.340064 754 640 754 C 678.659936 754 710 761.835016 710 771.5 C 710 781.164984 678.659936 789 640 789 C 601.340064 789 570 781.164984 570 771.5 Z" stroke-miterlimit="10" stroke-dasharray=""/></g><g><g><path fill="none" stroke="none"/><text fill="#000000" stroke="none" font-family="Arial" font-size="13px" font-style="normal" font-weight="bold" text-decoration="undefined" x="1078" y="938.5" text-anchor="middle" dominant-baseline="central" transform="matrix(1 0 0 1 -438 -166)">View Progress</text></g></g><g><path fill="#C0C0C0" stroke="none" paint-order="stroke fill markers" d=" M 561 834.5 C 561 824.835016 596.8172159999999 817 641 817 C 685.1827840000001 817 721 824.835016 721 834.5 C 721 844.164984 685.1827840000001 852 641 852 C 596.8172159999999 852 561 844.164984 561 834.5 Z" fill-opacity="0.2"/></g><g><path fill="#ffffff" stroke="none" paint-order="stroke fill markers" d=" M 554 827.5 C 554 817.835016 589.8172159999999 810 634 810 C 678.1827840000001 810 714 817.835016 714 827.5 C 714 837.164984 678.1827840000001 845 634 845 C 589.8172159999999 845 554 837.164984 554 827.5 Z"/></g><g><path fill="none" stroke="#000000" paint-order="fill stroke markers" d=" M 554 827.5 C 554 817.835016 589.8172159999999 810 634 810 C 678.1827840000001 810 714 817.835016 714 827.5 C 714 837.164984 678.1827840000001 845 634 845 C 589.8172159999999 845 554 837.164984 554 827.5 Z" stroke-miterlimit="10" stroke-dasharray=""/></g><g><g><path fill="none" stroke="none"/><text fill="#000000" stroke="none" font-family="Arial" font-size="13px" font-style="normal" font-weight="bold" text-decoration="undefined" x="1072" y="994.5" text-anchor="middle" dominant-baseline="central" transform="matrix(1 0 0 1 -438 -166)">Manage Settings</text></g></g><g><path fill="#C0C0C0" stroke="none" paint-order="stroke fill markers" d=" M 529 898.5 C 529 888.835016 574.6669504 881 631 881 C 687.3330496000001 881 733 888.835016 733 898.5 C 733 908.164984 687.3330496000001 916 631 916 C 574.6669504 916 529 908.164984 529 898.5 Z" fill-opacity="0.2"/></g><g><path fill="#ffffff" stroke="none" paint-order="stroke fill markers" d=" M 522 891.5 C 522 881.835016 567.6669504 874 624 874 C 680.3330496000001 874 726 881.835016 726 891.5 C 726 901.164984 680.3330496000001 909 624 909 C 567.6669504 909 522 901.164984 522 891.5 Z"/></g><g><path fill="none" stroke="#000000" paint-order="fill stroke markers" d=" M 522 891.5 C 522 881.835016 567.6669504 874 624 874 C 680.3330496000001 874 726 881.835016 726 891.5 C 726 901.164984 680.3330496000001 909 624 909 C 567.6669504 909 522 901.164984 522 891.5 Z" stroke-miterlimit="10" stroke-dasharray=""/></g><g><g><path fill="none" stroke="none"/><text fill="#000000" stroke="none" font-family="Arial" font-size="13px" font-style="normal" font-weight="bold" text-decoration="undefined" x="1062" y="1058.5" text-anchor="middle" dominant-baseline="central" transform="matrix(1 0 0 1 -438 -166)">Update Profile Details</text></g></g><g><path fill="none" stroke="#000000" paint-order="fill stroke markers" d=" M 183 680 L 569 757" stroke-miterlimit="10" stroke-dasharray=""/></g><g><path fill="none" stroke="#000000" paint-order="fill stroke markers" d=" M 577 809 L 183 684" stroke-miterlimit="10" stroke-dasharray=""/></g><g><path fill="none" stroke="#000000" paint-order="fill stroke markers" d=" M 585 873 L 183 689" stroke-miterlimit="10" stroke-dasharray=""/></g><g><path fill="#C0C0C0" stroke="none" paint-order="stroke fill markers" d=" M 497 954.5 C 497 944.835016 546.6963872 937 608 937 C 669.3036128000001 937 719 944.835016 719 954.5 C 719 964.164984 669.3036128000001 972 608 972 C 546.6963872 972 497 964.164984 497 954.5 Z" fill-opacity="0.2"/></g><g><path fill="#ffffff" stroke="none" paint-order="stroke fill markers" d=" M 490 947.5 C 490 937.835016 539.6963872 930 601 930 C 662.3036128000001 930 712 937.835016 712 947.5 C 712 957.164984 662.3036128000001 965 601 965 C 539.6963872 965 490 957.164984 490 947.5 Z"/></g><g><path fill="none" stroke="#000000" paint-order="fill stroke markers" d=" M 490 947.5 C 490 937.835016 539.6963872 930 601 930 C 662.3036128000001 930 712 937.835016 712 947.5 C 712 957.164984 662.3036128000001 965 601 965 C 539.6963872 965 490 957.164984 490 947.5 Z" stroke-miterlimit="10" stroke-dasharray=""/></g><g><g><path fill="none" stroke="none"/><text fill="#000000" stroke="none" font-family="Arial" font-size="13px" font-style="normal" font-weight="bold" text-decoration="undefined" x="1039" y="1114.5" text-anchor="middle" dominant-baseline="central" transform="matrix(1 0 0 1 -438 -166)">Manage Profile Details</text></g></g><g><path fill="none" stroke="#000000" paint-order="fill stroke markers" d=" M 183 693 L 571 929" stroke-miterlimit="10" stroke-dasharray=""/></g><g><path fill="#C0C0C0" stroke="none" paint-order="stroke fill markers" d=" M 457 1010.5 C 457 1000.835016 507.14410239999995 993 569 993 C 630.8558975999999 993 681 1000.835016 681 1010.5 C 681 1020.164984 630.8558975999999 1028 569 1028 C 507.14410239999995 1028 457 1020.164984 457 1010.5 Z" fill-opacity="0.2"/></g><g><path fill="#ffffff" stroke="none" paint-order="stroke fill markers" d=" M 450 1003.5 C 450 993.835016 500.14410239999995 986 562 986 C 623.8558975999999 986 674 993.835016 674 1003.5 C 674 1013.164984 623.8558975999999 1021 562 1021 C 500.14410239999995 1021 450 1013.164984 450 1003.5 Z"/></g><g><path fill="none" stroke="#000000" paint-order="fill stroke markers" d=" M 450 1003.5 C 450 993.835016 500.14410239999995 986 562 986 C 623.8558975999999 986 674 993.835016 674 1003.5 C 674 1013.164984 623.8558975999999 1021 562 1021 C 500.14410239999995 1021 450 1013.164984 450 1003.5 Z" stroke-miterlimit="10" stroke-dasharray=""/></g><g><g><path fill="none" stroke="none"/><text fill="#000000" stroke="none" font-family="Arial" font-size="13px" font-style="normal" font-weight="bold" text-decoration="undefined" x="1000" y="1170.5" text-anchor="middle" dominant-baseline="central" transform="matrix(1 0 0 1 -438 -166)">Update Workout History</text></g></g><g><path fill="none" stroke="#000000" paint-order="fill stroke markers" d=" M 183 699 L 540 985" stroke-miterlimit="10" stroke-dasharray=""/></g><g><path fill="#C0C0C0" stroke="none" paint-order="stroke fill markers" d=" M 433 1194.5 C 433 1184.835016 488.5166848 1177 557 1177 C 625.4833152000001 1177 681 1184.835016 681 1194.5 C 681 1204.164984 625.4833152000001 1212 557 1212 C 488.5166848 1212 433 1204.164984 433 1194.5 Z" fill-opacity="0.2"/></g><g><path fill="#ffffff" stroke="none" paint-order="stroke fill markers" d=" M 426 1187.5 C 426 1177.835016 481.5166848 1170 550 1170 C 618.4833152000001 1170 674 1177.835016 674 1187.5 C 674 1197.164984 618.4833152000001 1205 550 1205 C 481.5166848 1205 426 1197.164984 426 1187.5 Z"/></g><g><path fill="none" stroke="#000000" paint-order="fill stroke markers" d=" M 426 1187.5 C 426 1177.835016 481.5166848 1170 550 1170 C 618.4833152000001 1170 674 1177.835016 674 1187.5 C 674 1197.164984 618.4833152000001 1205 550 1205 C 481.5166848 1205 426 1197.164984 426 1187.5 Z" stroke-miterlimit="10" stroke-dasharray=""/></g><g><g><path fill="none" stroke="none"/><text fill="#000000" stroke="none" font-family="Arial" font-size="13px" font-style="normal" font-weight="bold" text-decoration="undefined" x="988" y="1354.5" text-anchor="middle" dominant-baseline="central" transform="matrix(1 0 0 1 -438 -166)">Manage Booking Schedule</text></g></g><g><path fill="none" stroke="#000000" paint-order="fill stroke markers" d=" M 200 1260 L 459 1206" stroke-miterlimit="10" stroke-dasharray=""/></g><g><path fill="#C0C0C0" stroke="none" paint-order="stroke fill markers" d=" M 401 1130.5 C 401 1120.835016 463.90398559999994 1113 541.5 1113 C 619.0960144000001 1113 682 1120.835016 682 1130.5 C 682 1140.164984 619.0960144000001 1148 541.5 1148 C 463.90398559999994 1148 401 1140.164984 401 1130.5 Z" fill-opacity="0.2"/></g><g><path fill="#ffffff" stroke="none" paint-order="stroke fill markers" d=" M 394 1123.5 C 394 1113.835016 456.90398559999994 1106 534.5 1106 C 612.0960144000001 1106 675 1113.835016 675 1123.5 C 675 1133.164984 612.0960144000001 1141 534.5 1141 C 456.90398559999994 1141 394 1133.164984 394 1123.5 Z"/></g><g><path fill="none" stroke="#000000" paint-order="fill stroke markers" d=" M 394 1123.5 C 394 1113.835016 456.90398559999994 1106 534.5 1106 C 612.0960144000001 1106 675 1113.835016 675 1123.5 C 675 1133.164984 612.0960144000001 1141 534.5 1141 C 456.90398559999994 1141 394 1133.164984 394 1123.5 Z" stroke-miterlimit="10" stroke-dasharray=""/></g><g><g><path fill="none" stroke="none"/><text fill="#000000" stroke="none" font-family="Arial" font-size="13px" font-style="normal" font-weight="bold" text-decoration="undefined" x="972.5" y="1290.5" text-anchor="middle" dominant-baseline="central" transform="matrix(1 0 0 1 -438 -166)">Track Fitness Progress Details</text></g></g><g><path fill="none" stroke="#000000" paint-order="fill stroke markers" d=" M 486 1142 L 200 1255" stroke-miterlimit="10" stroke-dasharray=""/></g><g><path fill="none" stroke="#000000" paint-order="fill stroke markers" d=" M 183 711 L 519 1105" stroke-miterlimit="10" stroke-dasharray=""/></g><g><path fill="#C0C0C0" stroke="none" paint-order="stroke fill markers" d=" M 497 1754.5 C 497 1744.835016 555.6506912 1737 628 1737 C 700.3493088 1737 759 1744.835016 759 1754.5 C 759 1764.164984 700.3493088 1772 628 1772 C 555.6506912 1772 497 1764.164984 497 1754.5 Z" fill-opacity="0.2"/></g><g><path fill="#ffffff" stroke="none" paint-order="stroke fill markers" d=" M 490 1747.5 C 490 1737.835016 548.6506912 1730 621 1730 C 693.3493088 1730 752 1737.835016 752 1747.5 C 752 1757.164984 693.3493088 1765 621 1765 C 548.6506912 1765 490 1757.164984 490 1747.5 Z"/></g><g><path fill="none" stroke="#000000" paint-order="fill stroke markers" d=" M 490 1747.5 C 490 1737.835016 548.6506912 1730 621 1730 C 693.3493088 1730 752 1737.835016 752 1747.5 C 752 1757.164984 693.3493088 1765 621 1765 C 548.6506912 1765 490 1757.164984 490 1747.5 Z" stroke-miterlimit="10" stroke-dasharray=""/></g><g><g><path fill="none" stroke="none"/><text fill="#000000" stroke="none" font-family="Arial" font-size="13px" font-style="normal" font-weight="bold" text-decoration="undefined" x="1059" y="1914.5" text-anchor="middle" dominant-baseline="central" transform="matrix(1 0 0 1 -438 -166)">Manage Workout Equipment</text></g></g><g><path fill="none" stroke="#000000" paint-order="fill stroke markers" d=" M 208 1665 L 530 1729" stroke-miterlimit="10" stroke-dasharray=""/></g><g><path fill="none" stroke="#000000" paint-order="fill stroke markers" d=" M 208 1673 L 521 1801" stroke-miterlimit="10" stroke-dasharray=""/></g><g><path fill="none" stroke="#000000" paint-order="fill stroke markers" d=" M 176 633 L 433 214" stroke-miterlimit="10" stroke-dasharray=""/></g><g><path fill="#C0C0C0" stroke="none" paint-order="stroke fill markers" d=" M 409 1474.5 C 409 1464.835016 477.276568 1457 561.5 1457 C 645.723432 1457 714 1464.835016 714 1474.5 C 714 1484.164984 645.723432 1492 561.5 1492 C 477.276568 1492 409 1484.164984 409 1474.5 Z" fill-opacity="0.2"/></g><g><path fill="#ffffff" stroke="none" paint-order="stroke fill markers" d=" M 402 1467.5 C 402 1457.835016 470.276568 1450 554.5 1450 C 638.723432 1450 707 1457.835016 707 1467.5 C 707 1477.164984 638.723432 1485 554.5 1485 C 470.276568 1485 402 1477.164984 402 1467.5 Z"/></g><g><path fill="none" stroke="#000000" paint-order="fill stroke markers" d=" M 402 1467.5 C 402 1457.835016 470.276568 1450 554.5 1450 C 638.723432 1450 707 1457.835016 707 1467.5 C 707 1477.164984 638.723432 1485 554.5 1485 C 470.276568 1485 402 1477.164984 402 1467.5 Z" stroke-miterlimit="10" stroke-dasharray=""/></g><g><g><path fill="none" stroke="none"/><text fill="#000000" stroke="none" font-family="Arial" font-size="13px" font-style="normal" font-weight="bold" text-decoration="undefined" x="992.5" y="1634.5" text-anchor="middle" dominant-baseline="central" transform="matrix(1 0 0 1 -438 -166)">Manage Personal Profile Settings</text></g></g><g><path fill="none" stroke="#000000" paint-order="fill stroke markers" d=" M 200 1281 L 520 1449" stroke-miterlimit="10" stroke-dasharray=""/></g><g><path fill="#C0C0C0" stroke="none" paint-order="stroke fill markers" d=" M 401 1546.5 C 401 1536.835016 444.8760896 1529 499 1529 C 553.1239104 1529 597 1536.835016 597 1546.5 C 597 1556.164984 553.1239104 1564 499 1564 C 444.8760896 1564 401 1556.164984 401 1546.5 Z" fill-opacity="0.2"/></g><g><path fill="#ffffff" stroke="none" paint-order="stroke fill markers" d=" M 394 1539.5 C 394 1529.835016 437.8760896 1522 492 1522 C 546.1239104 1522 590 1529.835016 590 1539.5 C 590 1549.164984 546.1239104 1557 492 1557 C 437.8760896 1557 394 1549.164984 394 1539.5 Z"/></g><g><path fill="none" stroke="#000000" paint-order="fill stroke markers" d=" M 394 1539.5 C 394 1529.835016 437.8760896 1522 492 1522 C 546.1239104 1522 590 1529.835016 590 1539.5 C 590 1549.164984 546.1239104 1557 492 1557 C 437.8760896 1557 394 1549.164984 394 1539.5 Z" stroke-miterlimit="10" stroke-dasharray=""/></g><g><g><path fill="none" stroke="none"/><text fill="#000000" stroke="none" font-family="Arial" font-size="13px" font-style="normal" font-weight="bold" text-decoration="undefined" x="930" y="1706.5" text-anchor="middle" dominant-baseline="central" transform="matrix(1 0 0 1 -438 -166)">View Member Details</text></g></g><g><path fill="none" stroke="#000000" paint-order="fill stroke markers" d=" M 200 1290 L 471 1521" stroke-miterlimit="10" stroke-dasharray=""/></g></g></svg>